<?xml version="1.0" encoding="UTF-8" standalone="no"?><!DOCTYPE svg PUBLIC "-//W3C//DTD SVG 1.1//EN" "http://www.w3.org/Graphics/SVG/1.1/DTD/svg11.dtd"><svg width="100%" height="100%" viewBox="0 0 53 60" version="1.1" xmlns="http://www.w3.org/2000/svg" xmlns:xlink="http://www.w3.org/1999/xlink" xml:space="preserve" xmlns:serif="http://www.serif.com/" style="fill-rule:evenodd;clip-rule:evenodd;stroke-linejoin:round;stroke-miterlimit:2;"><path id="Shape" d="M53.129,43.442c-0.015,2.517 -1.323,3.079 -1.323,3.079c0,0 -22.562,13.037 -24.029,13.854c-1.453,0.624 -2.425,0 -2.425,0c0,0 -23.608,-13.692 -24.47,-14.294c-0.862,-0.602 -0.882,-1.539 -0.882,-1.539c0,0 0.024,-27.113 0,-28.368c-0.023,-1.256 1.543,-2.199 1.543,-2.199l23.589,-13.634c1.452,-0.767 2.866,0 2.866,0c0,0 20.838,12.112 23.147,13.414c2.263,1.076 1.984,3.298 1.984,3.298c0,0 0.014,24.05 0,26.389Zm-9.23,-27.211c-4.83,-2.78 -16.208,-9.372 -16.208,-9.372c0,0 -1.11,-0.6 -2.25,0l-18.52,10.67c0,0 -1.23,0.738 -1.211,1.721c0.018,0.982 0,22.201 0,22.201c0,0 0.015,0.734 0.692,1.204c0.677,0.471 19.212,11.187 19.212,11.187c0,0 0.763,0.488 1.904,0c1.152,-0.639 18.866,-10.842 18.866,-10.842c0,0 1.027,-0.44 1.038,-2.41c0.004,-0.568 0.005,-2.773 0.005,-5.543l-20.855,12.637l0,-4.834c0,-1.986 1.537,-3.297 1.537,-3.297l18.447,-11.116c0.696,-0.727 0.84,-1.891 0.869,-2.332c0,-2.019 -0.001,-3.783 -0.002,-4.9l-20.851,12.634l0,-5.054c0,-1.986 1.317,-2.857 1.317,-2.857l16.01,-9.697Z" style="fill:#20a0ff;"/></svg>